<svg xmlns="http://www.w3.org/2000/svg" xmlns:xlink="http://www.w3.org/1999/xlink" width="16" height="22.391" viewBox="0 0 16 22.391">
  <defs>
    <rect id="rect-1" width="16" height="22.391" x="0" y="0"/>
    <path id="path-2" fill-rule="evenodd" d="M8 22.39117432s8-10.3045044 8-14.6029358C16 3.48977663 12.41532135 0 8 0 3.58468056 0 0 3.48977661 0 7.78823853c0 4.2984314 8 14.60293579 8 14.60293579zm5.00001907-14.6029358c0-2.68652343-2.2404251-4.86764526-5-4.86764526-2.75957489 0-5 2.18112183-5 4.86764527 0 2.68652343 2.24042511 4.86764526 5 4.86764526 2.7595749 0 5-2.18112183 5-4.86764526z"/>
    <mask id="mask-3" x="0" y="0" maskContentUnits="userSpaceOnUse" maskUnits="userSpaceOnUse">
      <rect width="16" height="22.391" x="0" y="0" fill="black"/>
      <use fill="white" xlink:href="#path-2"/>
    </mask>
  </defs>
  <g>
    <use fill="rgb(135,49,209)" xlink:href="#path-2"/>
    <use fill-opacity="0" stroke="rgb(135,49,209)" stroke-linecap="butt" stroke-linejoin="miter" stroke-width="5" mask="url(#mask-3)" xlink:href="#path-2"/>
  </g>
</svg>
